<svg width="1000.3125px" height="100.39999999999999px" xmlns="http://www.w3.org/2000/svg" viewBox="-438.65625 24.800000000000004 1377.3125 100.39999999999999" style="background: rgba(0, 0, 0, 0);" preserveAspectRatio="xMidYMid"><defs><linearGradient id="editing-outline-gradient" x1="1.2880107536067218" x2="-0.2880107536067219" y1="-0.1156614753256584" y2="1.1156614753256584"><stop offset="0" stop-color="#1cbb0b"></stop><stop offset="1" stop-color="#885109"></stop></linearGradient><filter id="editing-outline" x="-100%" y="-100%" width="300%" height="300%"><feMorphology in="SourceGraphic" operator="dilate" radius="2" result="outline"></feMorphology><feComposite operator="out" in="outline" in2="SourceAlpha"></feComposite></filter></defs><g filter="url(#editing-outline)"><g transform="translate(-249.9050054550171, 98.83500289916992)"><path d="M28.32 0L42.48 0L42.48-44.25L28.32-44.25L28.32-28.62L17.70-28.62L17.70-44.25L3.54-44.25L3.54 0L17.70 0L17.70-15.64L28.32-15.64L28.32 0ZM49.56 0L63.72 0L63.72-44.25L49.56-44.25L49.56 0ZM90.62 0L90.62 0L70.80 0L70.80-44.25L90.62-44.25L90.62-44.25Q96.58-44.25 100.59-43.04L100.59-43.04L100.59-43.04Q104.61-41.83 107.03-39.18L107.03-39.18L107.03-39.18Q109.45-36.52 110.48-32.33L110.48-32.33L110.48-32.33Q111.51-28.14 111.51-22.18L111.51-22.18L111.51-22.18Q111.51-16.23 110.48-12.01L110.48-12.01L110.48-12.01Q109.45-7.79 107.03-5.13L107.03-5.13L107.03-5.13Q104.61-2.48 100.59-1.24L100.59-1.24L100.59-1.24Q96.58 0 90.62 0ZM90.86-32.92L90.86-32.92L84.96-32.92L84.96-11.33L90.86-11.33L90.86-11.33Q93.81-11.33 95.08-12.01L95.08-12.01L95.08-12.01Q96.35-12.69 96.35-15.10L96.35-15.10L96.35-29.15L96.35-29.15Q96.35-31.57 95.08-32.24L95.08-32.24L95.08-32.24Q93.81-32.92 90.86-32.92ZM136.29 0L136.29 0L116.47 0L116.47-44.25L136.29-44.25L136.29-44.25Q142.25-44.25 146.26-43.04L146.26-43.04L146.26-43.04Q150.27-41.83 152.69-39.18L152.69-39.18L152.69-39.18Q155.11-36.52 156.14-32.33L156.14-32.33L156.14-32.33Q157.18-28.14 157.18-22.18L157.18-22.18L157.18-22.18Q157.18-16.23 156.14-12.01L156.14-12.01L156.14-12.01Q155.11-7.79 152.69-5.13L152.69-5.13L152.69-5.13Q150.27-2.48 146.26-1.24L146.26-1.24L146.26-1.24Q142.25 0 136.29 0ZM136.53-32.92L136.53-32.92L130.63-32.92L130.63-11.33L136.53-11.33L136.53-11.33Q139.48-11.33 140.74-12.01L140.74-12.01L140.74-12.01Q142.01-12.69 142.01-15.10L142.01-15.10L142.01-29.15L142.01-29.15Q142.01-31.57 140.74-32.24L140.74-32.24L140.74-32.24Q139.48-32.92 136.53-32.92ZM190.45-16.70L190.45-26.96L176.29-26.96L176.29-32.92L191.51-32.92L193.28-44.25L162.13-44.25L162.13 0L193.64 0L193.64-11.33L176.29-11.33L176.29-16.70L190.45-16.70ZM238.95-44.25L238.95 0L225.62 0L214.82-15.69L214.82-15.69Q214.52-16.11 214.35-16.93L214.35-16.93L214.35-16.93Q214.17-17.76 214.11-19.12L214.11-19.12L213.82-19.12L213.82 0L199.66 0L199.66-44.25L212.99-44.25L223.79-28.56L223.79-28.56Q224.08-28.14 224.26-27.32L224.26-27.32L224.26-27.32Q224.44-26.49 224.50-25.13L224.50-25.13L224.79-25.13L224.79-44.25L238.95-44.25ZM288.51 0L302.67 0L302.67-44.25L288.51-44.25L288.51-28.62L277.89-28.62L277.89-44.25L263.73-44.25L263.73 0L277.89 0L277.89-15.64L288.51-15.64L288.51 0ZM308.69-19.41L308.69-44.25L322.85-44.25L322.85-11.03L327.86-11.03L327.86-11.03Q330.58-11.03 331.55-11.74L331.55-11.74L331.55-11.74Q332.52-12.45 332.52-14.81L332.52-14.81L332.52-44.25L346.68-44.25L346.68-19.41L346.68-19.41Q346.68-13.75 345.95-9.85L345.95-9.85L345.95-9.85Q345.21-5.96 343.11-3.51L343.11-3.51L343.11-3.51Q341.02-1.06 337.30 0L337.30 0L337.30 0Q333.59 1.06 327.69 1.06L327.69 1.06L327.69 1.06Q321.79 1.06 318.07 0L318.07 0L318.07 0Q314.35-1.06 312.26-3.48L312.26-3.48L312.26-3.48Q310.16-5.90 309.43-9.82L309.43-9.82L309.43-9.82Q308.69-13.75 308.69-19.41L308.69-19.41ZM392.00-44.25L392.00 0L378.66 0L367.87-15.69L367.87-15.69Q367.57-16.11 367.39-16.93L367.39-16.93L367.39-16.93Q367.22-17.76 367.16-19.12L367.16-19.12L366.86-19.12L366.86 0L352.70 0L352.70-44.25L366.04-44.25L376.83-28.56L376.83-28.56Q377.13-28.14 377.30-27.32L377.30-27.32L377.30-27.32Q377.48-26.49 377.54-25.13L377.54-25.13L377.84-25.13L377.84-44.25L392.00-44.25ZM421.73-13.04L421.73-13.04L421.73-14.93L418.13-14.93L418.13-25.78L435.18-25.78L435.18-2.12L435.18-2.12Q426.81 1.06 417.78 1.06L417.78 1.06L417.78 1.06Q411.58 1.06 407.54-0.41L407.54-0.41L407.54-0.41Q403.50-1.89 401.14-4.81L401.14-4.81L401.14-4.81Q398.78-7.73 397.87-12.07L397.87-12.07L397.87-12.07Q396.95-16.40 396.95-22.18L396.95-22.18L396.95-22.18Q396.95-28.32 398.07-32.72L398.07-32.72L398.07-32.72Q399.19-37.11 401.79-39.91L401.79-39.91L401.79-39.91Q404.39-42.72 408.69-44.01L408.69-44.01L408.69-44.01Q413-45.31 419.37-45.31L419.37-45.31L419.37-45.31Q420.79-45.31 422.71-45.16L422.71-45.16L422.71-45.16Q424.62-45.02 426.57-44.75L426.57-44.75L426.57-44.75Q428.52-44.49 430.26-44.16L430.26-44.16L430.26-44.16Q432.00-43.84 433.06-43.48L433.06-43.48L430.94-32.63L430.94-32.63Q428.05-33.10 425.45-33.36L425.45-33.36L425.45-33.36Q422.85-33.63 420.61-33.63L420.61-33.63L420.61-33.63Q415.95-33.63 414.06-32.92L414.06-32.92L414.06-32.92Q412.17-32.21 412.17-30.09L412.17-30.09L412.17-10.03L416.83-10.03L416.83-10.03Q419.43-10.03 420.58-10.59L420.58-10.59L420.58-10.59Q421.73-11.15 421.73-13.04ZM469.88-16.70L469.88-26.96L455.72-26.96L455.72-32.92L470.94-32.92L472.71-44.25L441.56-44.25L441.56 0L473.06 0L473.06-11.33L455.72-11.33L455.72-16.70L469.88-16.70ZM510.00-14.75L510.00-14.75L517.67 0L502.09 0L496.31-13.16L493.24-13.16L493.24 0L479.08 0L479.08-44.25L501.38-44.25L501.38-44.25Q516.60-44.25 516.60-28.73L516.60-28.73L516.60-28.73Q516.60-18.11 510.00-14.75ZM496.49-32.92L496.49-32.92L493.24-32.92L493.24-24.07L496.49-24.07L496.49-24.07Q499.08-24.07 500.23-24.60L500.23-24.60L500.23-24.60Q501.38-25.13 501.38-27.02L501.38-27.02L501.38-29.97L501.38-29.97Q501.38-31.86 500.23-32.39L500.23-32.39L500.23-32.39Q499.08-32.92 496.49-32.92ZM523.21-9.32L521.44 2.36L530.29 2.36L532.65-9.32L523.21-9.32ZM580.38-44.25L574.31-16.17L573.66-16.17L567.64-44.25L552.71-44.25L563.69 0L584.34 0L595.31-44.25L580.38-44.25ZM598.85 0L613.01 0L613.01-44.25L598.85-44.25L598.85 0ZM618.32-0.77L618.32-0.77L620.33-12.45L620.33-12.45Q626.82-10.86 632.07-10.86L632.07-10.86L632.07-10.86Q634.72-10.86 636.76-10.94L636.76-10.94L636.76-10.94Q638.79-11.03 640.39-11.27L640.39-11.27L640.39-14.81L634.01-15.34L634.01-15.34Q629.71-15.75 626.82-16.76L626.82-16.76L626.82-16.76Q623.92-17.76 622.18-19.50L622.18-19.50L622.18-19.50Q620.44-21.24 619.71-23.69L619.71-23.69L619.71-23.69Q618.97-26.14 618.97-29.44L618.97-29.44L618.97-29.44Q618.97-33.98 619.91-37.02L619.91-37.02L619.91-37.02Q620.86-40.06 622.92-41.92L622.92-41.92L622.92-41.92Q624.99-43.78 628.26-44.55L628.26-44.55L628.26-44.55Q631.54-45.31 636.26-45.31L636.26-45.31L636.26-45.31Q645.64-45.31 653.25-43.54L653.25-43.54L651.48-32.21L651.48-32.21Q644.87-33.28 640.92-33.28L640.92-33.28L640.92-33.28Q636.96-33.28 634.19-32.92L634.19-32.92L634.19-29.44L639.26-28.97L639.26-28.97Q643.93-28.50 647.05-27.41L647.05-27.41L647.05-27.41Q650.18-26.31 652.10-24.54L652.10-24.54L652.10-24.54Q654.01-22.77 654.81-20.36L654.81-20.36L654.81-20.36Q655.61-17.94 655.61-14.81L655.61-14.81L655.61-14.81Q655.61-10.33 654.43-7.26L654.43-7.26L654.43-7.26Q653.25-4.19 651.60-2.60L651.60-2.60L651.60-2.60Q650.24-1.30 648.23-0.56L648.23-0.56L648.23-0.56Q646.23 0.18 643.98 0.53L643.98 0.53L643.98 0.53Q641.74 0.89 639.47 0.97L639.47 0.97L639.47 0.97Q637.20 1.06 635.37 1.06L635.37 1.06L635.37 1.06Q630.77 1.06 626.52 0.59L626.52 0.59L626.52 0.59Q622.27 0.12 618.32-0.77ZM660.92 0L675.08 0L675.08-44.25L660.92-44.25L660.92 0ZM707.59 0L707.59 0L682.16 0L682.16-44.25L705.11-44.25L705.11-44.25Q711.48-44.25 714.19-41.77L714.19-41.77L714.19-41.77Q716.91-39.29 716.91-34.57L716.91-34.57L716.91-34.57Q716.91-29.80 715.20-27.23L715.20-27.23L715.20-27.23Q713.49-24.66 710.54-23.84L710.54-23.84L710.54-23.42L710.54-23.42Q719.09-21.95 719.09-11.74L719.09-11.74L719.09-11.74Q719.09-6.43 716.29-3.22L716.29-3.22L716.29-3.22Q713.49 0 707.59 0ZM701.86-17.64L701.86-17.64L696.32-17.64L696.32-10.38L701.75-10.38L701.75-10.38Q704.75-10.38 704.75-14.04L704.75-14.04L704.75-14.04Q704.75-17.64 701.86-17.64ZM700.80-34.57L700.80-34.57L696.32-34.57L696.32-27.97L700.68-27.97L700.68-27.97Q703.40-27.97 703.40-31.27L703.40-31.27L703.40-31.27Q703.40-34.57 700.80-34.57ZM752.37 0L752.37-11.33L738.21-11.33L738.21-44.25L724.05-44.25L724.05 0L752.37 0ZM784.58-16.70L784.58-26.96L770.42-26.96L770.42-32.92L785.64-32.92L787.41-44.25L756.26-44.25L756.26 0L787.77 0L787.77-11.33L770.42-11.33L770.42-16.70L784.58-16.70ZM836.27 0L850.43 0L850.43-44.25L836.27-44.25L836.27-28.62L825.65-28.62L825.65-44.25L811.49-44.25L811.49 0L825.65 0L825.65-15.64L836.27-15.64L836.27 0ZM868.07 0L869.66-7.02L881.34-7.02L882.99 0L897.92 0L886.48-44.25L864.59-44.25L853.14 0L868.07 0ZM875.15-30.68L875.91-30.68L878.75-18.29L872.26-18.29L875.15-30.68ZM931.55-14.75L931.55-14.75L939.22 0L923.64 0L917.86-13.16L914.80-13.16L914.80 0L900.63 0L900.63-44.25L922.94-44.25L922.94-44.25Q938.16-44.25 938.16-28.73L938.16-28.73L938.16-28.73Q938.16-18.11 931.55-14.75ZM918.04-32.92L918.04-32.92L914.80-32.92L914.80-24.07L918.04-24.07L918.04-24.07Q920.64-24.07 921.79-24.60L921.79-24.60L921.79-24.60Q922.94-25.13 922.94-27.02L922.94-27.02L922.94-29.97L922.94-29.97Q922.94-31.86 921.79-32.39L921.79-32.39L921.79-32.39Q920.64-32.92 918.04-32.92ZM957.22 0L958.04-21.48L958.46-21.48L963.94 0L974.74 0L980.17-21.48L980.64-21.48L981.47 0L996.27 0L993.62-44.25L975.09-44.25L969.61-21.71L969.08-21.71L963.59-44.25L945.12-44.25L942.41 0L957.22 0Z" fill="url(#editing-outline-gradient)"></path></g></g><style>text {
  font-size: 64px;
  font-family: Arial Black;
  dominant-baseline: central;
  text-anchor: middle;
}</style></svg>