<svg width="1200.55px" height="120.8px" xmlns="http://www.w3.org/2000/svg" viewBox="-440.775 14.600000000000001 1381.55 120.8" style="background: rgba(0, 0, 0, 0);" preserveAspectRatio="xMidYMid"><defs><linearGradient id="editing-outline-gradient" x1="-0.41354545764260087" x2="1.4135454576426008" y1="0.09326335692419985" y2="0.9067366430758002"><stop offset="0" stop-color="#22980a"></stop><stop offset="1" stop-color="#4139ff"></stop></linearGradient><filter id="editing-outline" x="-100%" y="-100%" width="300%" height="300%"><feMorphology in="SourceGraphic" operator="dilate" radius="4" result="outline"></feMorphology><feComposite operator="out" in="outline" in2="SourceAlpha"></feComposite></filter></defs><g filter="url(#editing-outline)"><g transform="translate(-250.88000202178955, 102.9749984741211)"><path d="M13.99 0L6.80 0L6.80-45.36L13.99-45.36L13.99-26.46L33.01-26.46L33.01-45.36L40.19-45.36L40.19 0L33.01 0L33.01-20.41L13.99-20.41L13.99 0ZM60.98 0L53.80 0L53.80-45.36L60.98-45.36L60.98 0ZM74.59 0L74.59 0L74.59-45.05L74.59-45.05Q82.22-45.74 91.79-45.74L91.79-45.74L91.79-45.74Q99.92-45.74 105.12-40.13L105.12-40.13L105.12-40.13Q110.31-34.52 110.31-23.40L110.31-23.40L110.31-23.40Q110.31-12.29 104.96-5.95L104.96-5.95L104.96-5.95Q99.60 0.38 88.58 0.38L88.58 0.38L88.58 0.38Q77.55 0.38 74.59 0ZM81.77-39.69L81.77-5.54L81.77-5.54Q85.55-5.29 90.09-5.29L90.09-5.29L90.09-5.29Q97.21-5.29 100.08-9.92L100.08-9.92L100.08-9.92Q102.94-14.55 102.94-23.50L102.94-23.50L102.94-23.50Q102.94-32.45 99.70-36.26L99.70-36.26L99.70-36.26Q96.45-40.07 90.66-40.07L90.66-40.07L90.66-40.07Q88.07-40.07 81.77-39.69L81.77-39.69ZM120.90 0L120.90 0L120.90-45.05L120.90-45.05Q128.52-45.74 138.10-45.74L138.10-45.74L138.10-45.74Q146.22-45.74 151.42-40.13L151.42-40.13L151.42-40.13Q156.62-34.52 156.62-23.40L156.62-23.40L156.62-23.40Q156.62-12.29 151.26-5.95L151.26-5.95L151.26-5.95Q145.91 0.38 134.88 0.38L134.88 0.38L134.88 0.38Q123.86 0.38 120.90 0ZM128.08-39.69L128.08-5.54L128.08-5.54Q131.86-5.29 136.39-5.29L136.39-5.29L136.39-5.29Q143.51-5.29 146.38-9.92L146.38-9.92L146.38-9.92Q149.25-14.55 149.25-23.50L149.25-23.50L149.25-23.50Q149.25-32.45 146.00-36.26L146.00-36.26L146.00-36.26Q142.76-40.07 136.96-40.07L136.96-40.07L136.96-40.07Q134.38-40.07 128.08-39.69L128.08-39.69ZM193.85 0L167.20 0L167.20-45.36L193.47-45.36L193.47-39.50L174.38-39.50L174.38-25.77L190.95-25.77L190.95-20.29L174.38-20.29L174.38-5.86L194.73-5.86L193.85 0ZM239.15-45.36L239.15 0L234.23 0.57L234.23 0.57Q232.91 0.57 231.90-1.01L231.90-1.01L211.18-34.34L212.12 0L204.94 0L204.94-45.36L209.85-45.93L209.85-45.93Q211.24-45.93 212.25-44.35L212.25-44.35L233.10-11.09L231.97-45.36L239.15-45.36ZM278.21 0L271.03 0L271.03-45.36L278.21-45.36L278.21-26.46L297.23-26.46L297.23-45.36L304.42-45.36L304.42 0L297.23 0L297.23-20.41L278.21-20.41L278.21 0ZM316.89-13.67L316.89-13.67L316.89-45.36L324.07-45.36L324.07-14.80L324.07-14.80Q324.07-10.27 326.31-7.59L326.31-7.59L326.31-7.59Q328.54-4.91 333.21-4.91L333.21-4.91L333.21-4.91Q342.78-4.91 342.78-14.74L342.78-14.74L342.78-45.36L349.96-45.36L349.96-15.88L349.96-15.88Q349.96-8.25 345.62-3.75L345.62-3.75L345.62-3.75Q341.27 0.76 333.08 0.76L333.08 0.76L333.08 0.76Q324.89 0.76 320.89-3.12L320.89-3.12L320.89-3.12Q316.89-6.99 316.89-13.67ZM396.65-45.36L396.65 0L391.73 0.57L391.73 0.57Q390.41 0.57 389.40-1.01L389.40-1.01L368.68-34.34L369.62 0L362.44 0L362.44-45.36L367.35-45.93L367.35-45.93Q368.74-45.93 369.75-44.35L369.75-44.35L390.60-11.09L389.47-45.36L396.65-45.36ZM407.23-22.87L407.23-22.87L407.23-22.87Q407.23-37.11 416.43-42.97L416.43-42.97L416.43-42.97Q421.28-46.12 428.34-46.12L428.34-46.12L428.34-46.12Q435.33-46.12 441.50-43.85L441.50-43.85L441.50-43.85Q442.32-43.53 442.39-43.53L442.39-43.53L440.56-37.99L440.56-37.99Q440.50-37.99 439.71-38.21L439.71-38.21L439.71-38.21Q438.92-38.43 438.13-38.65L438.13-38.65L438.13-38.65Q437.35-38.87 436.09-39.12L436.09-39.12L436.09-39.12Q434.83-39.38 433.69-39.56L433.69-39.56L433.69-39.56Q431.17-40.07 428.34-40.07L428.34-40.07L428.34-40.07Q421.28-40.07 418.04-36.10L418.04-36.10L418.04-36.10Q414.79-32.13 414.79-22.74L414.79-22.74L414.79-22.74Q414.79-12.10 418.51-8.51L418.51-8.51L418.51-8.51Q420.40-6.68 422.67-5.99L422.67-5.99L422.67-5.99Q424.94-5.29 428.02-5.29L428.02-5.29L428.02-5.29Q431.11-5.29 436.09-5.73L436.09-5.73L436.09-19.40L443.27-20.22L443.27-1.64L443.27-1.64Q443.20-1.64 442.07-1.35L442.07-1.35L442.07-1.35Q440.94-1.07 439.99-0.85L439.99-0.85L439.99-0.85Q439.05-0.63 437.38-0.32L437.38-0.32L437.38-0.32Q435.71 0 434.20 0.25L434.20 0.25L434.20 0.25Q430.42 0.76 426.76 0.76L426.76 0.76L426.76 0.76Q417.38 0.76 412.30-5.23L412.30-5.23L412.30-5.23Q407.23-11.21 407.23-22.87ZM481.63 0L454.99 0L454.99-45.36L481.26-45.36L481.26-39.50L462.17-39.50L462.17-25.77L478.74-25.77L478.74-20.29L462.17-20.29L462.17-5.86L482.52-5.86L481.63 0ZM499.91 0L492.72 0L492.72-44.98L492.72-44.98Q497.64-45.74 507.78-45.74L507.78-45.74L507.78-45.74Q514.58-45.74 518.24-41.86L518.24-41.86L518.24-41.86Q521.89-37.99 521.89-31.94L521.89-31.94L521.89-31.94Q521.89-27.78 519.88-24.60L519.88-24.60L519.88-24.60Q517.86-21.42 514.08-19.78L514.08-19.78L518.30-9.95L518.30-9.95Q519.44-7.37 521.14-5.95L521.14-5.95L521.14-5.95Q522.84-4.54 524.79-4.54L524.79-4.54L523.78 0.38L522.27 0.38L522.27 0.38Q519.37 0.38 516.57-1.17L516.57-1.17L516.57-1.17Q513.76-2.71 512.38-5.80L512.38-5.80L506.71-18.33L506.71-18.33Q506.21-18.27 505.07-18.27L505.07-18.27L499.91-18.27L499.91 0ZM499.91-39.75L499.91-23.81L510.49-23.81L510.49-23.81Q511.37-24.13 512.44-25.33L512.44-25.33L512.44-25.33Q514.33-27.47 514.33-31.50L514.33-31.50L514.33-31.50Q514.33-40.07 506.27-40.07L506.27-40.07L506.27-40.07Q503.50-40.07 499.91-39.75L499.91-39.75ZM531.97 1.39L531.97 1.39Q531.97 0.63 531.37-0.88L531.37-0.88L531.37-0.88Q530.77-2.39 530.77-3.65L530.77-3.65L530.77-3.65Q530.77-4.91 531.81-6.08L531.81-6.08L531.81-6.08Q532.85-7.25 534.62-7.25L534.62-7.25L534.62-7.25Q536.38-7.25 537.39-5.80L537.39-5.80L537.39-5.80Q538.40-4.35 538.40-1.57L538.40-1.57L538.40-1.57Q538.40 1.20 536.38 4.50L536.38 4.50L536.38 4.50Q534.37 7.81 531.03 9.83L531.03 9.83L529.20 7.50L529.20 7.50Q531.97 4.35 531.97 1.39L531.97 1.39ZM575.57-1.70L575.57-1.70L560.01-44.92L567.38-45.80L580.67-7.25L593.96-45.80L601.34-44.92L585.27-0.44L585.27-0.44Q584.51-0.19 582.03 0.13L582.03 0.13L582.03 0.13Q579.54 0.44 577.90 0.44L577.90 0.44L577.90 0.44Q576.26 0.44 575.57-1.70ZM615.64 0L608.45 0L608.45-45.36L615.64-45.36L615.64 0ZM625.59-2.90L625.59-2.90L627.79-8.76L627.79-8.76Q634.28-5.23 638.63-5.23L638.63-5.23L638.63-5.23Q642.98-5.23 645.25-6.93L645.25-6.93L645.25-6.93Q647.51-8.63 647.51-11.59L647.51-11.59L647.51-11.59Q647.51-14.87 644.62-16.82L644.62-16.82L644.62-16.82Q642.98-17.89 641.88-18.40L641.88-18.40L641.88-18.40Q640.77-18.90 638.47-19.88L638.47-19.88L638.47-19.88Q636.17-20.85 634.91-21.45L634.91-21.45L634.91-21.45Q633.65-22.05 631.92-23.22L631.92-23.22L631.92-23.22Q630.19-24.38 629.24-25.58L629.24-25.58L629.24-25.58Q626.79-28.54 626.79-32.76L626.79-32.76L626.79-32.76Q626.79-38.62 630.85-42.27L630.85-42.27L630.85-42.27Q634.91-45.93 641.09-45.93L641.09-45.93L641.09-45.93Q644.87-45.93 648.40-44.67L648.40-44.67L648.40-44.67Q651.92-43.41 653.81-42.15L653.81-42.15L651.29-36.67L651.29-36.67Q645.12-39.88 641.65-39.88L641.65-39.88L641.65-39.88Q638.19-39.88 636.11-38.21L636.11-38.21L636.11-38.21Q634.03-36.54 634.03-33.83L634.03-33.83L634.03-33.83Q634.03-30.81 636.74-28.98L636.74-28.98L636.74-28.98Q639.01-27.47 641.97-26.21L641.97-26.21L641.97-26.21Q644.93-24.95 646.16-24.38L646.16-24.38L646.16-24.38Q647.39-23.81 649.28-22.55L649.28-22.55L649.28-22.55Q651.17-21.29 652.18-20.03L652.18-20.03L652.18-20.03Q654.70-16.76 654.70-12.35L654.70-12.35L654.70-12.35Q654.70-5.99 650.19-2.61L650.19-2.61L650.19-2.61Q645.69 0.76 638.38 0.76L638.38 0.76L638.38 0.76Q631.07 0.76 625.59-2.90ZM672.46 0L665.28 0L665.28-45.36L672.46-45.36L672.46 0ZM686.07 0L686.07 0L686.07-44.98L686.07-44.98Q690.98-45.74 701.13-45.74L701.13-45.74L701.13-45.74Q707.93-45.74 711.93-41.99L711.93-41.99L711.93-41.99Q715.93-38.24 715.93-33.08L715.93-33.08L715.93-33.08Q715.93-26.71 710.89-23.12L710.89-23.12L710.89-23.12Q717.00-19.78 717.00-12.54L717.00-12.54L717.00-12.54Q717.00-7.06 713.07-3.15L713.07-3.15L713.07-3.15Q709.13 0.76 701.19 0.76L701.19 0.76L701.19 0.76Q691.74 0.76 686.07 0ZM693.25-39.82L693.25-25.39L704.53-25.39L704.53-25.39Q705.22-25.96 705.63-26.27L705.63-26.27L705.63-26.27Q706.04-26.59 706.54-27.18L706.54-27.18L706.54-27.18Q707.05-27.78 707.43-28.48L707.43-28.48L707.43-28.48Q708.37-30.24 708.37-32.26L708.37-32.26L708.37-32.26Q708.37-40.07 699.24-40.07L699.24-40.07L699.24-40.07Q697.28-40.07 693.25-39.82L693.25-39.82ZM693.25-20.29L693.25-5.29L693.25-5.29Q698.42-4.91 700.31-4.91L700.31-4.91L700.31-4.91Q705.35-4.91 707.40-6.93L707.40-6.93L707.40-6.93Q709.44-8.95 709.44-12.69L709.44-12.69L709.44-12.69Q709.44-16.44 707.33-18.36L707.33-18.36L707.33-18.36Q705.22-20.29 700.12-20.29L700.12-20.29L693.25-20.29ZM750.71 0L727.21 0L727.21-45.36L734.39-45.36L734.39-6.05L751.59-6.05L750.71 0ZM786.93 0L760.28 0L760.28-45.36L786.55-45.36L786.55-39.50L767.47-39.50L767.47-25.77L784.03-25.77L784.03-20.29L767.47-20.29L767.47-5.86L787.81-5.86L786.93 0ZM823.47 0L816.29 0L816.29-45.36L823.47-45.36L823.47-26.46L842.50-26.46L842.50-45.36L849.68-45.36L849.68 0L842.50 0L842.50-20.41L823.47-20.41L823.47 0ZM865.56 0L858.06 0L872.99-44.41L872.99-44.41Q873.49-45.74 875.20-45.74L875.20-45.74L875.20-45.74Q875.89-45.74 881.94-45.36L881.94-45.36L896.99 0L889.62 0L885.53-13.23L869.59-13.23L865.56 0ZM877.46-38.93L871.29-18.90L883.76-18.90L877.46-39.31L877.46-38.93ZM912.55 0L905.37 0L905.37-44.98L905.37-44.98Q910.29-45.74 920.43-45.74L920.43-45.74L920.43-45.74Q927.23-45.74 930.89-41.86L930.89-41.86L930.89-41.86Q934.54-37.99 934.54-31.94L934.54-31.94L934.54-31.94Q934.54-27.78 932.53-24.60L932.53-24.60L932.53-24.60Q930.51-21.42 926.73-19.78L926.73-19.78L930.95-9.95L930.95-9.95Q932.08-7.37 933.79-5.95L933.79-5.95L933.79-5.95Q935.49-4.54 937.44-4.54L937.44-4.54L936.43 0.38L934.92 0.38L934.92 0.38Q932.02 0.38 929.22-1.17L929.22-1.17L929.22-1.17Q926.41-2.71 925.03-5.80L925.03-5.80L919.36-18.33L919.36-18.33Q918.86-18.27 917.72-18.27L917.72-18.27L912.55-18.27L912.55 0ZM912.55-39.75L912.55-23.81L923.14-23.81L923.14-23.81Q924.02-24.13 925.09-25.33L925.09-25.33L925.09-25.33Q926.98-27.47 926.98-31.50L926.98-31.50L926.98-31.50Q926.98-40.07 918.92-40.07L918.92-40.07L918.92-40.07Q916.15-40.07 912.55-39.75L912.55-39.75ZM953.32 0L946.45 0L948.53-44.92L948.53-44.92Q952.81-45.74 956.84-45.74L956.84-45.74L956.84-45.74Q958.10-45.74 958.67-44.35L958.67-44.35L970.70-11.47L982.74-44.35L982.74-44.35Q983.30-45.74 984.56-45.74L984.56-45.74L984.56-45.74Q989.10-45.74 992.88-44.92L992.88-44.92L994.96 0L988.09 0L987.02-38.62L975.49-6.30L975.49-6.30Q970.20-5.42 968.18-5.42L968.18-5.42L968.18-5.42Q966.17-5.42 965.66-6.80L965.66-6.80L954.39-38.62L953.32 0Z" fill="url(#editing-outline-gradient)"></path></g></g><style>text {
  font-size: 64px;
  font-family: Arial Black;
  dominant-baseline: central;
  text-anchor: middle;
}</style></svg>